# xmcd CD database file
#
# Track frame offsets:
#	150
#	28426
#	66242
#	113298
#	146907
#	209244
#	233167
#
# Disc length: 3621 seconds
#
# Revision: 0
# Processed by: cddbd v1.5.2PL0 Copyright (c) Steve Scherf et al.
# Submitted via: CDex 1.51
#
DISCID=6c0e2307
DTITLE=Ho-lus Bo-lus - Altogether...All at Once
DYEAR=2005
DGENRE=Jazz
TTITLE0=Dirt Track
TTITLE1=Fear and Happiness
TTITLE2=Leave a Light On
TTITLE3=The Long and Winding Road
TTITLE4=Mobilium Perpetuum
TTITLE5=Scatterbrain
TTITLE6=The Cube
EXTD=YEAR: 2005
EXTT0=
EXTT1=
EXTT2=
EXTT3=
EXTT4=
EXTT5=
EXTT6=
PLAYORDER=
